<?xml version="1.0" standalone="no"?>
<!DOCTYPE svg PUBLIC "-//W3C//DTD SVG 20010904//EN"
 "http://www.w3.org/TR/2001/REC-SVG-20010904/DTD/svg10.dtd">
<svg version="1.0" xmlns="http://www.w3.org/2000/svg"
 width="241.000000pt" height="144.000000pt" viewBox="0 0 241.000000 144.000000"
 preserveAspectRatio="xMidYMid meet">
<metadata>
Created by potrace 1.10, written by Peter Selinger 2001-2011
</metadata>
<g transform="translate(0.000000,144.000000) scale(0.100000,-0.100000)"
fill="#000000" stroke="none">
<path d="M1059 1394 c-17 -18 -26 -21 -41 -13 -15 8 -24 4 -48 -21 -17 -18
-30 -38 -30 -45 0 -22 -20 -28 -47 -14 -31 17 -52 5 -76 -44 -21 -42 -45 -47
-72 -17 -26 28 -49 25 -80 -11 l-26 -32 -32 18 c-41 22 -67 17 -86 -16 -13
-24 -13 -29 8 -58 l23 -32 -22 -24 c-27 -29 -21 -53 27 -106 l35 -39 -25 -30
c-38 -45 -50 -93 -44 -174 12 -148 62 -240 138 -252 25 -4 44 -15 54 -30 8
-13 26 -31 39 -39 21 -14 213 -43 396 -60 41 -4 149 -18 239 -31 90 -14 173
-22 185 -18 56 18 229 106 251 128 22 22 24 29 14 47 -8 16 -8 32 -1 58 28
102 30 119 10 149 -18 28 -18 31 -1 61 18 30 18 31 -7 56 l-26 25 -284 11
c-157 6 -313 9 -348 6 -58 -4 -64 -3 -82 20 -32 40 -26 45 50 37 60 -6 73 -4
90 11 27 24 25 47 -5 75 -28 26 -33 50 -11 50 18 0 76 78 76 101 0 9 -13 43
-30 74 -20 39 -28 65 -24 81 9 37 -21 66 -60 59 -27 -5 -33 -2 -47 23 -22 40
-52 46 -80 16z m55 -37 c10 -36 7 -66 -9 -97 -23 -44 -2 -36 55 21 51 51 76
60 48 17 -20 -30 -85 -75 -120 -83 -31 -8 -35 0 -13 29 17 22 20 93 6 116 -6
8 -8 17 -5 22 8 13 32 -3 38 -25z m-87 -84 c4 -59 1 -74 -21 -115 l-25 -47 25
9 c14 6 57 10 95 10 73 0 98 8 137 43 l22 20 0 -35 c0 -53 -16 -61 -108 -53
-91 8 -140 -7 -206 -65 -49 -44 -102 -120 -83 -120 8 0 17 6 20 14 3 8 27 22
54 31 26 10 53 24 59 31 29 35 136 26 200 -18 39 -27 47 -54 12 -44 -50 15
-206 18 -259 6 l-54 -14 62 -11 c71 -13 97 -32 114 -82 l11 -34 81 6 c105 8
647 -11 660 -24 6 -6 1 -13 -12 -20 -31 -17 -29 -68 4 -83 27 -12 32 -24 13
-30 -6 -2 -12 -23 -13 -47 0 -23 -6 -45 -11 -49 -28 -19 -25 -72 3 -72 32 0
-8 -27 -124 -83 -116 -57 -120 -58 -178 -50 -50 6 -55 8 -30 13 22 4 5 9 -68
19 -54 8 -100 11 -103 8 -3 -2 28 -8 68 -13 40 -4 66 -9 57 -11 -13 -3 -505
55 -622 73 -45 7 -67 27 -67 60 0 22 -4 24 -43 24 -23 0 -52 7 -64 15 -62 43
-94 279 -47 342 20 26 26 28 80 25 49 -2 56 0 44 10 -9 7 -14 22 -13 33 3 18
3 18 -9 -2 -13 -21 -15 -20 -81 44 -46 43 -65 69 -59 75 19 19 51 -3 91 -63
l40 -60 6 35 c4 19 4 39 1 44 -3 6 -3 12 1 14 10 4 43 97 43 119 0 9 7 19 15
23 24 9 18 -39 -10 -84 -14 -23 -28 -55 -32 -73 -5 -30 -4 -31 9 -13 22 28 30
4 13 -38 -8 -19 -15 -38 -15 -41 0 -3 18 -5 40 -5 22 0 40 2 40 4 0 3 -7 36
-15 75 -14 67 -9 150 11 183 8 13 35 -28 39 -60 2 -15 7 -52 10 -83 6 -42 4
-63 -9 -87 -13 -25 -14 -32 -3 -32 7 0 19 16 25 34 7 19 31 57 53 83 42 50 78
110 60 99 -10 -7 -10 15 4 119 2 17 11 47 20 69 22 52 36 36 42 -51z m-124
-42 c18 -31 27 -62 26 -87 l-2 -39 -6 45 c-4 25 -13 54 -20 65 -8 14 -11 15
-7 3 15 -49 17 -93 6 -138 -7 -27 -15 -50 -19 -50 -9 0 -43 163 -37 181 2 8 7
26 10 42 9 38 19 34 49 -22z m-178 -11 c3 -5 -6 -32 -20 -60 -20 -39 -26 -66
-27 -123 -1 -71 -6 -70 -23 8 -4 17 -29 52 -61 82 -52 50 -61 73 -29 73 18 0
64 -56 85 -103 l17 -39 5 59 c8 86 33 136 53 103z m503 -6 c-6 -31 -53 -55
-124 -64 -38 -5 -78 -12 -89 -16 -14 -4 -11 1 10 20 53 47 85 59 198 75 5 0 7
-6 5 -15z m-1 -143 c14 -8 6 -9 -32 -5 -37 4 -77 -3 -155 -25 -57 -16 -106
-28 -108 -26 -5 5 53 34 112 56 55 20 148 20 183 0z"/>
<path d="M993 1230 c-6 -30 -10 -57 -8 -59 6 -6 26 80 23 97 -2 9 -9 -8 -15
-38z"/>
<path d="M802 1070 c0 -19 4 -48 8 -65 l8 -30 0 35 c0 19 -4 49 -8 65 l-8 30
0 -35z"/>
<path d="M712 885 c10 -10 173 -25 206 -19 68 13 27 24 -90 24 -67 0 -119 -2
-116 -5z"/>
<path d="M631 851 c-38 -38 -41 -163 -6 -249 23 -57 27 -50 9 18 -26 100 -12
203 31 227 16 9 101 2 145 -12 14 -5 20 -3 16 3 -8 13 -94 32 -141 32 -21 0
-43 -8 -54 -19z"/>
<path d="M895 780 c-22 -4 -44 -6 -49 -3 -20 13 -35 -57 -18 -84 4 -7 94 -22
212 -38 113 -14 255 -32 315 -40 108 -14 113 -14 280 15 104 18 145 27 105 25
l-65 -4 57 12 c51 11 56 14 46 30 -5 10 -7 28 -5 39 6 20 4 21 -121 14 -177
-10 -172 -8 -172 -66 0 -38 4 -50 18 -54 9 -2 4 -4 -13 -3 -28 2 -30 5 -33 44
-4 51 11 83 40 83 52 0 5 9 -77 14 -49 4 -153 11 -230 16 -159 11 -232 11
-290 0z m320 -30 c239 -16 223 -10 227 -76 l3 -56 -50 6 c-338 39 -551 69
-557 79 -10 16 -10 45 1 51 4 3 6 -5 4 -18 -3 -13 -1 -26 5 -30 5 -3 122 -19
258 -36 137 -17 265 -33 284 -36 l35 -5 -3 46 -4 45 -54 0 c-99 0 -469 32
-484 42 -16 10 26 8 335 -12z m485 -49 c0 -19 -163 -40 -174 -22 -8 12 17 19
84 24 25 2 55 4 68 5 12 1 22 -2 22 -7z"/>
<path d="M1547 763 c18 -2 50 -2 70 0 21 2 7 4 -32 4 -38 0 -55 -2 -38 -4z"/>
<path d="M850 632 c0 -11 6 -24 13 -29 14 -12 249 -47 452 -68 152 -16 171
-17 164 -11 -2 3 -70 12 -149 20 -263 28 -461 59 -457 70 4 12 48 13 222 4
l120 -7 -125 14 c-69 7 -151 16 -182 20 -53 5 -58 4 -58 -13z"/>
<path d="M1630 596 c-70 -10 -75 -13 -75 -36 0 -17 5 -24 15 -22 8 2 60 12
115 21 78 13 101 20 103 34 3 14 -4 17 -40 16 -24 -1 -77 -6 -118 -13z"/>
<path d="M790 563 c-31 -6 -40 -20 -39 -58 l1 -30 7 30 c4 17 12 29 19 28 10
-2 177 -18 457 -43 61 -5 149 -12 198 -16 65 -5 90 -11 97 -23 8 -14 9 -13 10
6 0 12 8 27 18 33 14 10 14 11 1 6 -9 -2 -140 6 -290 19 -151 14 -314 28 -364
32 l-90 8 65 6 65 6 -65 0 c-36 0 -76 -2 -90 -4z"/>
<path d="M1660 504 c-52 -19 -98 -41 -102 -47 -14 -22 -9 -77 6 -77 8 0 58 20
110 44 95 44 96 45 96 80 0 20 -3 36 -7 35 -5 0 -51 -16 -103 -35z"/>
<path d="M774 493 c4 -4 121 -26 259 -49 139 -23 237 -43 218 -43 -19 -1 -32
-4 -29 -7 4 -3 32 -2 63 1 31 4 54 9 52 11 -10 10 -208 48 -366 70 -189 26
-208 28 -197 17z"/>
<path d="M215 250 c-30 -12 -64 -53 -74 -87 -13 -46 -2 -82 40 -124 42 -42 89
-52 129 -27 16 10 24 10 41 0 18 -11 24 -11 38 2 22 20 40 20 65 1 14 -11 23
-12 33 -4 9 9 17 8 27 0 11 -10 21 -9 45 3 22 12 36 13 56 6 15 -6 37 -7 50
-4 12 3 26 1 30 -5 4 -7 17 -3 38 13 18 13 47 31 66 41 28 14 35 14 42 3 5 -7
9 -16 9 -19 0 -10 37 -49 46 -49 4 0 18 10 31 22 l23 21 24 -22 c21 -20 31
-22 78 -17 29 3 66 6 82 6 16 0 36 5 43 11 9 9 19 7 38 -5 20 -13 28 -14 44
-4 15 9 25 9 46 0 48 -22 80 -15 115 24 26 31 31 42 25 68 -3 17 -7 50 -8 74
-2 33 -8 48 -27 63 -31 23 -78 24 -109 3 -21 -15 -26 -15 -50 -2 -21 13 -60
15 -221 12 -107 -1 -202 -3 -210 -3 -8 -1 -37 2 -64 5 -40 5 -53 2 -78 -16
l-30 -22 -22 21 c-28 26 -41 26 -73 1 -24 -19 -27 -19 -54 -3 -23 14 -32 15
-51 4 -19 -10 -29 -9 -53 3 -20 10 -34 12 -47 5 -12 -6 -25 -6 -37 1 -23 12
-68 12 -96 0z m94 -39 c22 -14 2 -33 -26 -26 -36 9 -73 -18 -73 -54 0 -40 22
-55 69 -47 47 7 60 -6 29 -28 -44 -31 -97 -16 -124 35 -20 39 -11 82 23 109
27 21 78 26 102 11z m81 -26 c0 -32 2 -35 29 -35 26 0 30 4 33 33 2 20 8 32
18 32 12 0 15 -16 15 -85 0 -69 -3 -85 -15 -85 -9 0 -15 10 -16 25 -2 47 -4
50 -33 50 -27 0 -30 -3 -33 -37 -2 -26 -8 -38 -18 -38 -12 0 -15 16 -17 75 -2
87 1 100 22 100 11 0 15 -10 15 -35z m244 -46 c26 -80 25 -118 -4 -84 -16 19
-64 20 -80 0 -7 -8 -16 -15 -21 -15 -14 0 -11 29 12 94 12 34 23 67 25 74 2 6
12 12 22 12 15 0 25 -18 46 -81z m166 61 c41 -41 10 -110 -50 -110 -26 0 -30
-4 -30 -26 0 -16 -5 -24 -12 -22 -9 3 -14 33 -16 91 l-3 87 46 0 c32 0 51 -6
65 -20z m155 10 c3 -6 -6 -15 -21 -20 -26 -10 -27 -13 -22 -68 6 -65 2 -82
-18 -82 -11 0 -14 16 -14 71 0 62 -2 71 -20 76 -11 3 -20 12 -20 19 0 17 105
20 115 4z m145 -5 c0 -11 -11 -15 -40 -15 -33 0 -40 -3 -40 -20 0 -16 7 -20
36 -20 45 0 42 -24 -4 -28 -24 -2 -32 -8 -32 -23 0 -16 7 -19 41 -19 33 0 40
-3 37 -18 -5 -26 -104 -31 -112 -5 -6 21 -6 145 1 156 2 4 29 7 59 7 41 0 54
-4 54 -15z m148 -10 c21 -27 20 -58 -5 -86 -12 -14 -11 -18 2 -29 8 -7 15 -19
15 -26 0 -23 -28 -16 -46 11 -21 32 -40 32 -48 -1 -4 -14 -12 -24 -19 -21 -12
4 -23 137 -13 164 3 8 22 13 50 13 36 0 48 -5 64 -25z m152 10 c20 -24 -2 -40
-29 -24 -17 11 -23 11 -33 0 -8 -8 -9 -15 -3 -17 6 -2 25 -13 43 -24 24 -15
32 -27 32 -50 0 -49 -57 -67 -101 -31 -19 16 -22 22 -11 32 9 10 15 10 24 1
15 -15 58 -16 58 -2 0 6 -16 20 -35 31 -49 29 -62 55 -39 80 21 23 76 25 94 4z"/>
<path d="M576 138 c-6 -26 9 -47 24 -32 10 10 2 54 -10 54 -4 0 -10 -10 -14
-22z"/>
<path d="M722 158 c3 -29 6 -33 28 -30 13 1 29 7 35 13 15 15 -8 44 -39 47
-25 3 -27 1 -24 -30z"/>
<path d="M1169 183 c0 -5 -2 -18 -3 -31 -3 -28 8 -36 40 -28 28 7 34 50 8 60
-22 8 -44 8 -45 -1z"/>
<path d="M1541 232 c-22 -22 -29 -40 -35 -89 -8 -71 -1 -91 45 -123 25 -18 38
-21 74 -15 76 11 109 82 65 138 -11 14 -20 32 -20 40 0 9 -12 29 -26 46 -33
39 -67 40 -103 3z m86 -28 c3 -10 1 -30 -4 -45 -9 -22 -8 -31 3 -40 10 -8 14
-8 14 0 0 6 7 11 15 11 11 0 15 -11 15 -39 0 -38 -1 -38 -42 -44 -47 -6 -72 3
-88 33 -8 16 -7 26 4 42 9 13 13 31 10 45 -4 13 -1 30 6 38 17 20 59 19 67 -1z"/>
<path d="M1577 113 c-14 -13 -6 -33 13 -33 11 0 20 4 20 9 0 13 -26 32 -33 24z"/>
<path d="M1824 241 c-44 -27 -64 -59 -64 -104 0 -102 99 -168 180 -120 27 15
30 15 54 0 32 -21 85 -22 113 -2 17 12 27 13 47 3 21 -9 31 -8 50 2 36 19 38
46 8 83 -15 18 -37 52 -50 78 -37 73 -101 98 -166 64 -26 -14 -33 -14 -62 0
-43 20 -72 19 -110 -4z m100 -27 c9 -3 16 -13 16 -21 0 -12 -8 -14 -33 -9 -62
12 -102 -48 -60 -89 12 -13 26 -15 54 -11 45 7 58 -7 27 -28 -48 -34 -108 -11
-128 48 -24 75 48 139 124 110z m184 -14 c66 -62 15 -172 -72 -156 -44 8 -70
44 -69 94 2 70 91 109 141 62z m90 -138 c2 -14 -2 -22 -12 -22 -19 0 -29 17
-22 36 8 22 30 12 34 -14z"/>
<path d="M2017 172 c-20 -22 -22 -63 -5 -80 30 -30 98 -1 98 41 0 23 -35 57
-58 57 -11 0 -26 -8 -35 -18z"/>
</g>
</svg>
